<?xml version="1.0" encoding="utf-8"?>
<!-- Generator: Adobe Illustrator 16.0.0, SVG Export Plug-In . SVG Version: 6.00 Build 0)  -->
<!DOCTYPE svg PUBLIC "-//W3C//DTD SVG 1.1//EN" "http://www.w3.org/Graphics/SVG/1.1/DTD/svg11.dtd">
<svg version="1.1" id="Capa_1" xmlns="http://www.w3.org/2000/svg" xmlns:xlink="http://www.w3.org/1999/xlink" x="0px" y="0px"
	 width="303.509px" height="257.894px" viewBox="0 0 303.509 257.894" enable-background="new 0 0 303.509 257.894"
	 xml:space="preserve">
<g>
	<path fill="#F15E26" d="M130.715,13.822c-0.634,0.14-1.268,0.292-1.901,0.439c0.094,0.009,0.178,0.03,0.27,0.03
		C129.685,14.292,130.237,14.113,130.715,13.822z"/>
	<path fill="#F15E26" d="M146.092,14.292c1.694,0,3.064-1.332,3.157-3.005c-2.102,0.115-4.184,0.292-6.252,0.516
		C143.31,13.222,144.574,14.292,146.092,14.292z"/>
	<path fill="#F15E26" d="M163.1,14.292c1.581,0,2.874-1.154,3.123-2.658c-2.075-0.19-4.172-0.322-6.284-0.406
		C159.997,12.926,161.387,14.292,163.1,14.292z"/>
	<path fill="#F15E26" d="M180.111,14.292c0.406,0,0.79-0.085,1.146-0.224c-1.137-0.263-2.274-0.525-3.428-0.753
		C178.407,13.916,179.211,14.292,180.111,14.292z"/>
	<path fill="#F15E26" d="M97.901,26.633c-0.989,0.579-1.979,1.162-2.959,1.77c0.042,0,0.08,0.014,0.118,0.014
		C96.311,28.417,97.384,27.685,97.901,26.633z"/>
	<circle fill="#F15E26" cx="112.072" cy="25.242" r="3.175"/>
	<path fill="#F15E26" d="M129.083,22.068c-1.757,0-3.177,1.42-3.177,3.174c0,1.754,1.42,3.175,3.177,3.175
		c1.751,0,3.17-1.421,3.17-3.175C132.253,23.488,130.834,22.068,129.083,22.068z"/>
	<circle fill="#F15E26" cx="146.092" cy="25.242" r="3.175"/>
	<path fill="#F15E26" d="M163.1,22.068c-1.751,0-3.17,1.42-3.17,3.174c0,1.754,1.419,3.175,3.17,3.175
		c1.758,0,3.179-1.421,3.179-3.175C166.278,23.488,164.857,22.068,163.1,22.068z"/>
	<circle fill="#F15E26" cx="180.111" cy="25.242" r="3.175"/>
	<path fill="#F15E26" d="M197.123,22.068c-1.754,0-3.178,1.42-3.178,3.174c0,1.754,1.424,3.175,3.178,3.175
		c1.75,0,3.17-1.421,3.17-3.175C200.293,23.488,198.873,22.068,197.123,22.068z"/>
	<path fill="#F15E26" d="M214.13,28.417c0.491,0,0.947-0.119,1.362-0.317c-1.48-0.914-2.984-1.788-4.515-2.638
		C211.096,27.11,212.457,28.417,214.13,28.417z"/>
	<path fill="#F15E26" d="M81.227,39.368c0-0.288-0.051-0.559-0.124-0.82c-1.432,1.221-2.832,2.48-4.2,3.771
		c0.355,0.139,0.743,0.224,1.149,0.224C79.802,42.542,81.227,41.122,81.227,39.368z"/>
	<path fill="#F15E26" d="M95.06,36.193c-1.749,0-3.17,1.42-3.17,3.175c0,1.754,1.421,3.174,3.17,3.174
		c1.753,0,3.179-1.42,3.179-3.174C98.239,37.613,96.813,36.193,95.06,36.193z"/>
	<circle fill="#F15E26" cx="112.072" cy="39.367" r="3.174"/>
	<path fill="#F15E26" d="M129.083,36.193c-1.757,0-3.177,1.42-3.177,3.175c0,1.754,1.42,3.174,3.177,3.174
		c1.751,0,3.17-1.42,3.17-3.174C132.253,37.613,130.834,36.193,129.083,36.193z"/>
	<circle fill="#F15E26" cx="146.092" cy="39.367" r="3.174"/>
	<path fill="#F15E26" d="M163.1,36.193c-1.751,0-3.17,1.42-3.17,3.175c0,1.754,1.419,3.174,3.17,3.174
		c1.758,0,3.179-1.42,3.179-3.174C166.278,37.613,164.857,36.193,163.1,36.193z"/>
	<circle fill="#F15E26" cx="180.111" cy="39.367" r="3.174"/>
	<path fill="#F15E26" d="M197.123,36.193c-1.754,0-3.178,1.42-3.178,3.175c0,1.754,1.424,3.174,3.178,3.174
		c1.75,0,3.17-1.42,3.17-3.174C200.293,37.613,198.873,36.193,197.123,36.193z"/>
	<path fill="#F15E26" d="M214.13,36.193c-1.749,0-3.173,1.42-3.173,3.175c0,1.754,1.424,3.174,3.173,3.174
		c1.755,0,3.175-1.42,3.175-3.174C217.305,37.613,215.885,36.193,214.13,36.193z"/>
	<path fill="#F15E26" d="M227.969,39.368c0,1.754,1.42,3.174,3.17,3.174c0.854,0,1.614-0.339,2.189-0.879
		c-1.548-1.429-3.12-2.828-4.734-4.172C228.205,38.019,227.969,38.666,227.969,39.368z"/>
	<path fill="#F15E26" d="M78.053,50.319c-1.755,0-3.174,1.424-3.174,3.178c0,1.75,1.419,3.17,3.174,3.17
		c1.749,0,3.174-1.42,3.174-3.17C81.227,51.743,79.802,50.319,78.053,50.319z"/>
	<path fill="#F15E26" d="M95.06,50.319c-1.749,0-3.17,1.424-3.17,3.178c0,1.75,1.421,3.17,3.17,3.17c1.753,0,3.179-1.42,3.179-3.17
		C98.239,51.743,96.813,50.319,95.06,50.319z"/>
	<path fill="#F15E26" d="M112.072,50.319c-1.753,0-3.174,1.424-3.174,3.178c0,1.75,1.421,3.17,3.174,3.17
		c1.755,0,3.174-1.42,3.174-3.17C115.246,51.743,113.827,50.319,112.072,50.319z"/>
	<path fill="#F15E26" d="M129.083,50.319c-1.757,0-3.177,1.424-3.177,3.178c0,1.75,1.42,3.17,3.177,3.17
		c1.751,0,3.17-1.42,3.17-3.17C132.253,51.743,130.834,50.319,129.083,50.319z"/>
	<path fill="#F15E26" d="M146.092,50.319c-1.755,0-3.175,1.424-3.175,3.178c0,1.75,1.42,3.17,3.175,3.17
		c1.754,0,3.173-1.42,3.173-3.17C149.265,51.743,147.846,50.319,146.092,50.319z"/>
	<path fill="#F15E26" d="M163.1,50.319c-1.751,0-3.17,1.424-3.17,3.178c0,1.75,1.419,3.17,3.17,3.17c1.758,0,3.179-1.42,3.179-3.17
		C166.278,51.743,164.857,50.319,163.1,50.319z"/>
	<path fill="#F15E26" d="M180.111,50.319c-1.754,0-3.175,1.424-3.175,3.178c0,1.75,1.421,3.17,3.175,3.17
		c1.753,0,3.174-1.42,3.174-3.17C183.285,51.743,181.864,50.319,180.111,50.319z"/>
	<path fill="#F15E26" d="M197.123,50.319c-1.754,0-3.178,1.424-3.178,3.178c0,1.75,1.424,3.17,3.178,3.17
		c1.75,0,3.17-1.42,3.17-3.17C200.293,51.743,198.873,50.319,197.123,50.319z"/>
	<path fill="#F15E26" d="M214.13,50.319c-1.749,0-3.173,1.424-3.173,3.178c0,1.75,1.424,3.17,3.173,3.17
		c1.755,0,3.175-1.42,3.175-3.17C217.305,51.743,215.885,50.319,214.13,50.319z"/>
	<path fill="#F15E26" d="M231.139,50.319c-1.75,0-3.17,1.424-3.17,3.178c0,1.75,1.42,3.17,3.17,3.17c1.758,0,3.178-1.42,3.178-3.17
		C234.316,51.743,232.896,50.319,231.139,50.319z"/>
	<path fill="#F15E26" d="M246.564,56.232c-0.473-0.622-0.954-1.234-1.445-1.843C245.352,55.174,245.872,55.83,246.564,56.232z"/>
	<path fill="#F15E26" d="M61.045,64.448c-1.759,0-3.179,1.42-3.179,3.175c0,1.753,1.419,3.174,3.179,3.174
		c1.749,0,3.169-1.421,3.169-3.174C64.214,65.868,62.794,64.448,61.045,64.448z"/>
	<path fill="#F15E26" d="M78.053,64.448c-1.755,0-3.174,1.42-3.174,3.175c0,1.753,1.419,3.174,3.174,3.174
		c1.749,0,3.174-1.421,3.174-3.174C81.227,65.868,79.802,64.448,78.053,64.448z"/>
	<path fill="#F15E26" d="M95.06,64.448c-1.749,0-3.17,1.42-3.17,3.175c0,1.753,1.421,3.174,3.17,3.174
		c1.753,0,3.179-1.421,3.179-3.174C98.239,65.868,96.813,64.448,95.06,64.448z"/>
	<circle fill="#F15E26" cx="112.072" cy="67.622" r="3.174"/>
	<path fill="#F15E26" d="M129.083,64.448c-1.757,0-3.177,1.42-3.177,3.175c0,1.753,1.42,3.174,3.177,3.174
		c1.751,0,3.17-1.421,3.17-3.174C132.253,65.868,130.834,64.448,129.083,64.448z"/>
	<circle fill="#F15E26" cx="146.092" cy="67.622" r="3.174"/>
	<path fill="#F15E26" d="M163.1,64.448c-1.751,0-3.17,1.42-3.17,3.175c0,1.753,1.419,3.174,3.17,3.174
		c1.758,0,3.179-1.421,3.179-3.174C166.278,65.868,164.857,64.448,163.1,64.448z"/>
	<circle fill="#F15E26" cx="180.111" cy="67.622" r="3.174"/>
	<path fill="#F15E26" d="M197.123,64.448c-1.754,0-3.178,1.42-3.178,3.175c0,1.753,1.424,3.174,3.178,3.174
		c1.75,0,3.17-1.421,3.17-3.174C200.293,65.868,198.873,64.448,197.123,64.448z"/>
	<path fill="#F15E26" d="M214.13,64.448c-1.749,0-3.173,1.42-3.173,3.175c0,1.753,1.424,3.174,3.173,3.174
		c1.755,0,3.175-1.421,3.175-3.174C217.305,65.868,215.885,64.448,214.13,64.448z"/>
	<path fill="#F15E26" d="M231.139,64.448c-1.75,0-3.17,1.42-3.17,3.175c0,1.753,1.42,3.174,3.17,3.174
		c1.758,0,3.178-1.421,3.178-3.174C234.316,65.868,232.896,64.448,231.139,64.448z"/>
	<circle fill="#F15E26" cx="248.15" cy="67.622" r="3.174"/>
	<path fill="#F15E26" d="M61.045,84.921c1.749,0,3.169-1.42,3.169-3.174c0-1.755-1.42-3.175-3.169-3.175
		c-1.759,0-3.179,1.42-3.179,3.175C57.867,83.501,59.286,84.921,61.045,84.921z"/>
	<path fill="#F15E26" d="M78.053,78.573c-1.755,0-3.174,1.42-3.174,3.175c0,1.754,1.419,3.174,3.174,3.174
		c1.749,0,3.174-1.42,3.174-3.174C81.227,79.993,79.802,78.573,78.053,78.573z"/>
	<path fill="#F15E26" d="M95.06,78.573c-1.749,0-3.17,1.42-3.17,3.175c0,1.754,1.421,3.174,3.17,3.174
		c1.753,0,3.179-1.42,3.179-3.174C98.239,79.993,96.813,78.573,95.06,78.573z"/>
	<circle fill="#F15E26" cx="112.072" cy="81.747" r="3.174"/>
	<path fill="#F15E26" d="M129.083,78.573c-1.757,0-3.177,1.42-3.177,3.175c0,1.754,1.42,3.174,3.177,3.174
		c1.751,0,3.17-1.42,3.17-3.174C132.253,79.993,130.834,78.573,129.083,78.573z"/>
	<circle fill="#F15E26" cx="146.092" cy="81.747" r="3.174"/>
	<path fill="#F15E26" d="M163.1,78.573c-1.751,0-3.17,1.42-3.17,3.175c0,1.754,1.419,3.174,3.17,3.174
		c1.758,0,3.179-1.42,3.179-3.174C166.278,79.993,164.857,78.573,163.1,78.573z"/>
	<circle fill="#F15E26" cx="180.111" cy="81.747" r="3.174"/>
	<path fill="#F15E26" d="M197.123,78.573c-1.754,0-3.178,1.42-3.178,3.175c0,1.754,1.424,3.174,3.178,3.174
		c1.75,0,3.17-1.42,3.17-3.174C200.293,79.993,198.873,78.573,197.123,78.573z"/>
	<path fill="#F15E26" d="M214.13,78.573c-1.749,0-3.173,1.42-3.173,3.175c0,1.754,1.424,3.174,3.173,3.174
		c1.755,0,3.175-1.42,3.175-3.174C217.305,79.993,215.885,78.573,214.13,78.573z"/>
	<path fill="#F15E26" d="M231.139,78.573c-1.75,0-3.17,1.42-3.17,3.175c0,1.754,1.42,3.174,3.17,3.174
		c1.758,0,3.178-1.42,3.178-3.174C234.316,79.993,232.896,78.573,231.139,78.573z"/>
	<circle fill="#F15E26" cx="248.15" cy="81.747" r="3.174"/>
	<path fill="#F15E26" d="M44.029,99.05c1.758,0,3.178-1.424,3.178-3.179c0-1.183-0.659-2.202-1.619-2.747
		c-0.579,1.953-1.103,3.927-1.576,5.922C44.021,99.046,44.025,99.05,44.029,99.05z"/>
	<path fill="#F15E26" d="M61.045,99.05c1.749,0,3.169-1.424,3.169-3.179c0-1.749-1.42-3.17-3.169-3.17
		c-1.759,0-3.179,1.421-3.179,3.17C57.867,97.626,59.286,99.05,61.045,99.05z"/>
	<path fill="#F15E26" d="M78.053,92.702c-1.755,0-3.174,1.421-3.174,3.17c0,1.755,1.419,3.179,3.174,3.179
		c1.749,0,3.174-1.424,3.174-3.179C81.227,94.123,79.802,92.702,78.053,92.702z"/>
	<path fill="#F15E26" d="M95.06,92.702c-1.749,0-3.17,1.421-3.17,3.17c0,1.755,1.421,3.179,3.17,3.179
		c1.753,0,3.179-1.424,3.179-3.179C98.239,94.123,96.813,92.702,95.06,92.702z"/>
	<path fill="#F15E26" d="M112.072,92.702c-1.753,0-3.174,1.421-3.174,3.17c0,1.755,1.421,3.179,3.174,3.179
		c1.755,0,3.174-1.424,3.174-3.179C115.246,94.123,113.827,92.702,112.072,92.702z"/>
	<path fill="#F15E26" d="M129.083,92.702c-1.757,0-3.177,1.421-3.177,3.17c0,1.755,1.42,3.179,3.177,3.179
		c1.751,0,3.17-1.424,3.17-3.179C132.253,94.123,130.834,92.702,129.083,92.702z"/>
	<path fill="#F15E26" d="M146.092,92.702c-1.755,0-3.175,1.421-3.175,3.17c0,1.755,1.42,3.179,3.175,3.179
		c1.754,0,3.173-1.424,3.173-3.179C149.265,94.123,147.846,92.702,146.092,92.702z"/>
	<path fill="#F15E26" d="M163.1,92.702c-1.751,0-3.17,1.421-3.17,3.17c0,1.755,1.419,3.179,3.17,3.179
		c1.758,0,3.179-1.424,3.179-3.179C166.278,94.123,164.857,92.702,163.1,92.702z"/>
	<path fill="#F15E26" d="M180.111,92.702c-1.754,0-3.175,1.421-3.175,3.17c0,1.755,1.421,3.179,3.175,3.179
		c1.753,0,3.174-1.424,3.174-3.179C183.285,94.123,181.864,92.702,180.111,92.702z"/>
	<path fill="#F15E26" d="M197.123,92.702c-1.754,0-3.178,1.421-3.178,3.17c0,1.755,1.424,3.179,3.178,3.179
		c1.75,0,3.17-1.424,3.17-3.179C200.293,94.123,198.873,92.702,197.123,92.702z"/>
	<path fill="#F15E26" d="M214.13,92.702c-1.749,0-3.173,1.421-3.173,3.17c0,1.755,1.424,3.179,3.173,3.179
		c1.755,0,3.175-1.424,3.175-3.179C217.305,94.123,215.885,92.702,214.13,92.702z"/>
	<path fill="#F15E26" d="M231.139,92.702c-1.75,0-3.17,1.421-3.17,3.17c0,1.755,1.42,3.179,3.17,3.179
		c1.758,0,3.178-1.424,3.178-3.179C234.316,94.123,232.896,92.702,231.139,92.702z"/>
	<path fill="#F15E26" d="M248.15,92.702c-1.755,0-3.175,1.421-3.175,3.17c0,1.755,1.42,3.179,3.175,3.179
		c1.753,0,3.174-1.424,3.174-3.179C251.324,94.123,249.903,92.702,248.15,92.702z"/>
	<path fill="#F15E26" d="M265.162,92.702c-1.754,0-3.178,1.421-3.178,3.17c0,1.755,1.424,3.179,3.178,3.179
		c0.6,0,1.158-0.178,1.631-0.469c-0.478-1.979-1.006-3.939-1.589-5.875C265.192,92.707,265.179,92.702,265.162,92.702z"/>
	<path fill="#F15E26" d="M44.029,113.175c1.758,0,3.178-1.42,3.178-3.174s-1.42-3.174-3.178-3.174c-0.617,0-1.192,0.186-1.682,0.494
		c-0.253,1.59-0.469,3.19-0.66,4.802C42.271,112.766,43.099,113.175,44.029,113.175z"/>
	<path fill="#F15E26" d="M61.045,113.175c1.749,0,3.169-1.42,3.169-3.174s-1.42-3.174-3.169-3.174c-1.759,0-3.179,1.42-3.179,3.174
		S59.286,113.175,61.045,113.175z"/>
	<path fill="#F15E26" d="M78.053,106.828c-1.755,0-3.174,1.42-3.174,3.174s1.419,3.174,3.174,3.174c1.749,0,3.174-1.42,3.174-3.174
		S79.802,106.828,78.053,106.828z"/>
	<path fill="#F15E26" d="M95.06,106.828c-1.749,0-3.17,1.42-3.17,3.174s1.421,3.174,3.17,3.174c1.753,0,3.179-1.42,3.179-3.174
		S96.813,106.828,95.06,106.828z"/>
	<circle fill="#F15E26" cx="112.072" cy="110.001" r="3.174"/>
	<path fill="#F15E26" d="M129.083,106.828c-1.757,0-3.177,1.42-3.177,3.174s1.42,3.174,3.177,3.174c1.751,0,3.17-1.42,3.17-3.174
		S130.834,106.828,129.083,106.828z"/>
	<circle fill="#F15E26" cx="146.092" cy="110.001" r="3.174"/>
	<path fill="#F15E26" d="M163.1,106.828c-1.751,0-3.17,1.42-3.17,3.174s1.419,3.174,3.17,3.174c1.758,0,3.179-1.42,3.179-3.174
		S164.857,106.828,163.1,106.828z"/>
	<circle fill="#F15E26" cx="180.111" cy="110.001" r="3.174"/>
	<path fill="#F15E26" d="M197.123,106.828c-1.754,0-3.178,1.42-3.178,3.174s1.424,3.174,3.178,3.174c1.75,0,3.17-1.42,3.17-3.174
		S198.873,106.828,197.123,106.828z"/>
	<path fill="#F15E26" d="M214.13,106.828c-1.749,0-3.173,1.42-3.173,3.174s1.424,3.174,3.173,3.174c1.755,0,3.175-1.42,3.175-3.174
		S215.885,106.828,214.13,106.828z"/>
	<path fill="#F15E26" d="M231.139,106.828c-1.75,0-3.17,1.42-3.17,3.174s1.42,3.174,3.17,3.174c1.758,0,3.178-1.42,3.178-3.174
		S232.896,106.828,231.139,106.828z"/>
	<circle fill="#F15E26" cx="248.15" cy="110.001" r="3.174"/>
	<path fill="#F15E26" d="M265.162,106.828c-1.754,0-3.178,1.42-3.178,3.174s1.424,3.174,3.178,3.174c1.75,0,3.17-1.42,3.17-3.174
		S266.912,106.828,265.162,106.828z"/>
	<path fill="#F15E26" d="M44.029,127.3c1.758,0,3.178-1.42,3.178-3.174s-1.42-3.174-3.178-3.174c-1.568,0-2.866,1.146-3.12,2.642
		c-0.004,0.282-0.017,0.566-0.017,0.849C41.053,126.045,42.389,127.3,44.029,127.3z"/>
	<path fill="#F15E26" d="M61.045,127.3c1.749,0,3.169-1.42,3.169-3.174s-1.42-3.174-3.169-3.174c-1.759,0-3.179,1.42-3.179,3.174
		S59.286,127.3,61.045,127.3z"/>
	<path fill="#F15E26" d="M78.053,120.953c-1.755,0-3.174,1.42-3.174,3.174s1.419,3.174,3.174,3.174c1.749,0,3.174-1.42,3.174-3.174
		S79.802,120.953,78.053,120.953z"/>
	<path fill="#F15E26" d="M95.06,120.953c-1.749,0-3.17,1.42-3.17,3.174s1.421,3.174,3.17,3.174c1.753,0,3.179-1.42,3.179-3.174
		S96.813,120.953,95.06,120.953z"/>
	<circle fill="#F15E26" cx="112.072" cy="124.126" r="3.174"/>
	<path fill="#F15E26" d="M129.083,120.953c-1.757,0-3.177,1.42-3.177,3.174s1.42,3.174,3.177,3.174c1.751,0,3.17-1.42,3.17-3.174
		S130.834,120.953,129.083,120.953z"/>
	<circle fill="#F15E26" cx="146.092" cy="124.126" r="3.174"/>
	<path fill="#F15E26" d="M163.1,120.953c-1.751,0-3.17,1.42-3.17,3.174s1.419,3.174,3.17,3.174c1.758,0,3.179-1.42,3.179-3.174
		S164.857,120.953,163.1,120.953z"/>
	<circle fill="#F15E26" cx="180.111" cy="124.126" r="3.174"/>
	<path fill="#F15E26" d="M197.123,120.953c-1.754,0-3.178,1.42-3.178,3.174s1.424,3.174,3.178,3.174c1.75,0,3.17-1.42,3.17-3.174
		S198.873,120.953,197.123,120.953z"/>
	<path fill="#F15E26" d="M214.13,120.953c-1.749,0-3.173,1.42-3.173,3.174s1.424,3.174,3.173,3.174c1.755,0,3.175-1.42,3.175-3.174
		S215.885,120.953,214.13,120.953z"/>
	<path fill="#F15E26" d="M231.139,120.953c-1.75,0-3.17,1.42-3.17,3.174s1.42,3.174,3.17,3.174c1.758,0,3.178-1.42,3.178-3.174
		S232.896,120.953,231.139,120.953z"/>
	<circle fill="#F15E26" cx="248.15" cy="124.126" r="3.174"/>
	<path fill="#F15E26" d="M265.162,120.953c-1.754,0-3.178,1.42-3.178,3.174s1.424,3.174,3.178,3.174c1.75,0,3.17-1.42,3.17-3.174
		S266.912,120.953,265.162,120.953z"/>
	<path fill="#F15E26" d="M41.848,140.547c0.566,0.54,1.336,0.879,2.181,0.879c1.758,0,3.178-1.42,3.178-3.175
		c0-1.749-1.42-3.174-3.178-3.174c-1.107,0-2.08,0.575-2.65,1.438C41.506,137.868,41.67,139.208,41.848,140.547z"/>
	<path fill="#F15E26" d="M61.045,141.426c1.749,0,3.169-1.42,3.169-3.175c0-1.749-1.42-3.174-3.169-3.174
		c-1.759,0-3.179,1.425-3.179,3.174C57.867,140.006,59.286,141.426,61.045,141.426z"/>
	<path fill="#F15E26" d="M78.053,135.078c-1.755,0-3.174,1.425-3.174,3.174c0,1.755,1.419,3.175,3.174,3.175
		c1.749,0,3.174-1.42,3.174-3.175C81.227,136.502,79.802,135.078,78.053,135.078z"/>
	<path fill="#F15E26" d="M95.06,135.078c-1.749,0-3.17,1.425-3.17,3.174c0,1.755,1.421,3.175,3.17,3.175
		c1.753,0,3.179-1.42,3.179-3.175C98.239,136.502,96.813,135.078,95.06,135.078z"/>
	<path fill="#F15E26" d="M112.072,135.078c-1.753,0-3.174,1.425-3.174,3.174c0,1.755,1.421,3.175,3.174,3.175
		c1.755,0,3.174-1.42,3.174-3.175C115.246,136.502,113.827,135.078,112.072,135.078z"/>
	<path fill="#F15E26" d="M129.083,135.078c-1.757,0-3.177,1.425-3.177,3.174c0,1.755,1.42,3.175,3.177,3.175
		c1.751,0,3.17-1.42,3.17-3.175C132.253,136.502,130.834,135.078,129.083,135.078z"/>
	<path fill="#F15E26" d="M146.092,135.078c-1.755,0-3.175,1.425-3.175,3.174c0,1.755,1.42,3.175,3.175,3.175
		c1.754,0,3.173-1.42,3.173-3.175C149.265,136.502,147.846,135.078,146.092,135.078z"/>
	<path fill="#F15E26" d="M163.1,135.078c-1.751,0-3.17,1.425-3.17,3.174c0,1.755,1.419,3.175,3.17,3.175
		c1.758,0,3.179-1.42,3.179-3.175C166.278,136.502,164.857,135.078,163.1,135.078z"/>
	<path fill="#F15E26" d="M180.111,135.078c-1.754,0-3.175,1.425-3.175,3.174c0,1.755,1.421,3.175,3.175,3.175
		c1.753,0,3.174-1.42,3.174-3.175C183.285,136.502,181.864,135.078,180.111,135.078z"/>
	<path fill="#F15E26" d="M197.123,135.078c-1.754,0-3.178,1.425-3.178,3.174c0,1.755,1.424,3.175,3.178,3.175
		c1.75,0,3.17-1.42,3.17-3.175C200.293,136.502,198.873,135.078,197.123,135.078z"/>
	<path fill="#F15E26" d="M214.13,135.078c-1.749,0-3.173,1.425-3.173,3.174c0,1.755,1.424,3.175,3.173,3.175
		c1.755,0,3.175-1.42,3.175-3.175C217.305,136.502,215.885,135.078,214.13,135.078z"/>
	<path fill="#F15E26" d="M231.139,135.078c-1.75,0-3.17,1.425-3.17,3.174c0,1.755,1.42,3.175,3.17,3.175
		c1.758,0,3.178-1.42,3.178-3.175C234.316,136.502,232.896,135.078,231.139,135.078z"/>
	<path fill="#F15E26" d="M248.15,135.078c-1.755,0-3.175,1.425-3.175,3.174c0,1.755,1.42,3.175,3.175,3.175
		c1.753,0,3.174-1.42,3.174-3.175C251.324,136.502,249.903,135.078,248.15,135.078z"/>
	<path fill="#F15E26" d="M265.162,135.078c-1.754,0-3.178,1.425-3.178,3.174c0,1.755,1.424,3.175,3.178,3.175
		c1.75,0,3.17-1.42,3.17-3.175C268.332,136.502,266.912,135.078,265.162,135.078z"/>
	<path fill="#F15E26" d="M47.207,152.381c0-1.755-1.42-3.175-3.178-3.175c-0.25,0-0.49,0.038-0.727,0.094
		c0.431,2.075,0.93,4.125,1.479,6.158C46.167,155.12,47.207,153.874,47.207,152.381z"/>
	<path fill="#F15E26" d="M61.045,155.555c1.749,0,3.169-1.42,3.169-3.174c0-1.755-1.42-3.175-3.169-3.175
		c-1.759,0-3.179,1.42-3.179,3.175C57.867,154.135,59.286,155.555,61.045,155.555z"/>
	<path fill="#F15E26" d="M78.053,149.207c-1.755,0-3.174,1.42-3.174,3.175c0,1.754,1.419,3.174,3.174,3.174
		c1.749,0,3.174-1.42,3.174-3.174C81.227,150.626,79.802,149.207,78.053,149.207z"/>
	<path fill="#F15E26" d="M95.06,149.207c-1.749,0-3.17,1.42-3.17,3.175c0,1.754,1.421,3.174,3.17,3.174
		c1.753,0,3.179-1.42,3.179-3.174C98.239,150.626,96.813,149.207,95.06,149.207z"/>
	<circle fill="#F15E26" cx="112.072" cy="152.381" r="3.174"/>
	<path fill="#F15E26" d="M129.083,149.207c-1.757,0-3.177,1.42-3.177,3.175c0,1.754,1.42,3.174,3.177,3.174
		c1.751,0,3.17-1.42,3.17-3.174C132.253,150.626,130.834,149.207,129.083,149.207z"/>
	<circle fill="#F15E26" cx="146.092" cy="152.381" r="3.174"/>
	<path fill="#F15E26" d="M163.1,149.207c-1.751,0-3.17,1.42-3.17,3.175c0,1.754,1.419,3.174,3.17,3.174
		c1.758,0,3.179-1.42,3.179-3.174C166.278,150.626,164.857,149.207,163.1,149.207z"/>
	<circle fill="#F15E26" cx="180.111" cy="152.381" r="3.174"/>
	<path fill="#F15E26" d="M197.123,149.207c-1.754,0-3.178,1.42-3.178,3.175c0,1.754,1.424,3.174,3.178,3.174
		c1.75,0,3.17-1.42,3.17-3.174C200.293,150.626,198.873,149.207,197.123,149.207z"/>
	<path fill="#F15E26" d="M214.13,149.207c-1.749,0-3.173,1.42-3.173,3.175c0,1.754,1.424,3.174,3.173,3.174
		c1.755,0,3.175-1.42,3.175-3.174C217.305,150.626,215.885,149.207,214.13,149.207z"/>
	<path fill="#F15E26" d="M231.139,149.207c-1.75,0-3.17,1.42-3.17,3.175c0,1.754,1.42,3.174,3.17,3.174
		c1.758,0,3.178-1.42,3.178-3.174C234.316,150.626,232.896,149.207,231.139,149.207z"/>
	<circle fill="#F15E26" cx="248.15" cy="152.381" r="3.174"/>
	<path fill="#F15E26" d="M265.162,149.207c-1.754,0-3.178,1.42-3.178,3.175c0,1.754,1.424,3.174,3.178,3.174
		c0.347,0,0.681-0.071,0.997-0.177c0.457-1.725,0.88-3.471,1.26-5.229C266.845,149.567,266.046,149.207,265.162,149.207z"/>
	<path fill="#F15E26" d="M61.045,169.68c1.749,0,3.169-1.42,3.169-3.175c0-1.753-1.42-3.173-3.169-3.173
		c-1.759,0-3.179,1.42-3.179,3.173C57.867,168.26,59.286,169.68,61.045,169.68z"/>
	<path fill="#F15E26" d="M78.053,163.333c-1.755,0-3.174,1.42-3.174,3.173c0,1.755,1.419,3.175,3.174,3.175
		c1.749,0,3.174-1.42,3.174-3.175C81.227,164.752,79.802,163.333,78.053,163.333z"/>
	<path fill="#F15E26" d="M95.06,163.333c-1.749,0-3.17,1.42-3.17,3.173c0,1.755,1.421,3.175,3.17,3.175
		c1.753,0,3.179-1.42,3.179-3.175C98.239,164.752,96.813,163.333,95.06,163.333z"/>
	<circle fill="#F15E26" cx="112.072" cy="166.506" r="3.174"/>
	<path fill="#F15E26" d="M129.083,163.333c-1.757,0-3.177,1.42-3.177,3.173c0,1.755,1.42,3.175,3.177,3.175
		c1.751,0,3.17-1.42,3.17-3.175C132.253,164.752,130.834,163.333,129.083,163.333z"/>
	<circle fill="#F15E26" cx="146.092" cy="166.506" r="3.174"/>
	<path fill="#F15E26" d="M163.1,163.333c-1.751,0-3.17,1.42-3.17,3.173c0,1.755,1.419,3.175,3.17,3.175
		c1.758,0,3.179-1.42,3.179-3.175C166.278,164.752,164.857,163.333,163.1,163.333z"/>
	<circle fill="#F15E26" cx="180.111" cy="166.506" r="3.174"/>
	<path fill="#F15E26" d="M197.123,163.333c-1.754,0-3.178,1.42-3.178,3.173c0,1.755,1.424,3.175,3.178,3.175
		c1.75,0,3.17-1.42,3.17-3.175C200.293,164.752,198.873,163.333,197.123,163.333z"/>
	<path fill="#F15E26" d="M214.13,163.333c-1.749,0-3.173,1.42-3.173,3.173c0,1.755,1.424,3.175,3.173,3.175
		c1.755,0,3.175-1.42,3.175-3.175C217.305,164.752,215.885,163.333,214.13,163.333z"/>
	<path fill="#F15E26" d="M231.139,163.333c-1.75,0-3.17,1.42-3.17,3.173c0,1.755,1.42,3.175,3.17,3.175
		c1.758,0,3.178-1.42,3.178-3.175C234.316,164.752,232.896,163.333,231.139,163.333z"/>
	<circle fill="#F15E26" cx="248.15" cy="166.506" r="3.174"/>
	<path fill="#F15E26" d="M261.984,166.505c0,0.353,0.075,0.682,0.177,0.999c0.481-1.234,0.951-2.469,1.396-3.72
		C262.617,164.338,261.984,165.344,261.984,166.505z"/>
	<path fill="#F15E26" d="M61.045,183.806c1.749,0,3.169-1.42,3.169-3.175c0-1.749-1.42-3.175-3.169-3.175
		c-1.759,0-3.179,1.426-3.179,3.175C57.867,182.386,59.286,183.806,61.045,183.806z"/>
	<path fill="#F15E26" d="M78.053,177.457c-1.755,0-3.174,1.426-3.174,3.175c0,1.755,1.419,3.175,3.174,3.175
		c1.749,0,3.174-1.42,3.174-3.175C81.227,178.882,79.802,177.457,78.053,177.457z"/>
	<path fill="#F15E26" d="M95.06,177.457c-1.749,0-3.17,1.426-3.17,3.175c0,1.755,1.421,3.175,3.17,3.175
		c1.753,0,3.179-1.42,3.179-3.175C98.239,178.882,96.813,177.457,95.06,177.457z"/>
	<path fill="#F15E26" d="M112.072,177.457c-1.753,0-3.174,1.426-3.174,3.175c0,1.755,1.421,3.175,3.174,3.175
		c1.755,0,3.174-1.42,3.174-3.175C115.246,178.882,113.827,177.457,112.072,177.457z"/>
	<path fill="#F15E26" d="M129.083,177.457c-1.757,0-3.177,1.426-3.177,3.175c0,1.755,1.42,3.175,3.177,3.175
		c1.751,0,3.17-1.42,3.17-3.175C132.253,178.882,130.834,177.457,129.083,177.457z"/>
	<path fill="#F15E26" d="M146.092,177.457c-1.755,0-3.175,1.426-3.175,3.175c0,1.755,1.42,3.175,3.175,3.175
		c1.754,0,3.173-1.42,3.173-3.175C149.265,178.882,147.846,177.457,146.092,177.457z"/>
	<path fill="#F15E26" d="M163.1,177.457c-1.751,0-3.17,1.426-3.17,3.175c0,1.755,1.419,3.175,3.17,3.175
		c1.758,0,3.179-1.42,3.179-3.175C166.278,178.882,164.857,177.457,163.1,177.457z"/>
	<path fill="#F15E26" d="M180.111,177.457c-1.754,0-3.175,1.426-3.175,3.175c0,1.755,1.421,3.175,3.175,3.175
		c1.753,0,3.174-1.42,3.174-3.175C183.285,178.882,181.864,177.457,180.111,177.457z"/>
	<path fill="#F15E26" d="M197.123,177.457c-1.754,0-3.178,1.426-3.178,3.175c0,1.755,1.424,3.175,3.178,3.175
		c1.75,0,3.17-1.42,3.17-3.175C200.293,178.882,198.873,177.457,197.123,177.457z"/>
	<path fill="#F15E26" d="M214.13,177.457c-1.749,0-3.173,1.426-3.173,3.175c0,1.755,1.424,3.175,3.173,3.175
		c1.755,0,3.175-1.42,3.175-3.175C217.305,178.882,215.885,177.457,214.13,177.457z"/>
	<path fill="#F15E26" d="M231.139,177.457c-1.75,0-3.17,1.426-3.17,3.175c0,1.755,1.42,3.175,3.17,3.175
		c1.758,0,3.178-1.42,3.178-3.175C234.316,178.882,232.896,177.457,231.139,177.457z"/>
	<path fill="#F15E26" d="M248.15,177.457c-1.755,0-3.175,1.426-3.175,3.175c0,1.755,1.42,3.175,3.175,3.175
		c1.753,0,3.174-1.42,3.174-3.175C251.324,178.882,249.903,177.457,248.15,177.457z"/>
	<path fill="#F15E26" d="M61.772,191.68c0.794,1.119,1.589,2.231,2.418,3.321c0.008-0.08,0.024-0.16,0.024-0.24
		C64.214,193.26,63.175,192.009,61.772,191.68z"/>
	<path fill="#F15E26" d="M78.053,197.935c1.749,0,3.174-1.425,3.174-3.174c0-1.755-1.425-3.175-3.174-3.175
		c-1.755,0-3.174,1.42-3.174,3.175C74.878,196.51,76.298,197.935,78.053,197.935z"/>
	<path fill="#F15E26" d="M95.06,191.586c-1.749,0-3.17,1.42-3.17,3.175c0,1.749,1.421,3.174,3.17,3.174
		c1.753,0,3.179-1.425,3.179-3.174C98.239,193.006,96.813,191.586,95.06,191.586z"/>
	<path fill="#F15E26" d="M112.072,191.586c-1.753,0-3.174,1.42-3.174,3.175c0,1.749,1.421,3.174,3.174,3.174
		c1.755,0,3.174-1.425,3.174-3.174C115.246,193.006,113.827,191.586,112.072,191.586z"/>
	<path fill="#F15E26" d="M129.083,191.586c-1.757,0-3.177,1.42-3.177,3.175c0,1.749,1.42,3.174,3.177,3.174
		c1.751,0,3.17-1.425,3.17-3.174C132.253,193.006,130.834,191.586,129.083,191.586z"/>
	<path fill="#F15E26" d="M146.092,191.586c-1.755,0-3.175,1.42-3.175,3.175c0,1.749,1.42,3.174,3.175,3.174
		c1.754,0,3.173-1.425,3.173-3.174C149.265,193.006,147.846,191.586,146.092,191.586z"/>
	<path fill="#F15E26" d="M163.1,191.586c-1.751,0-3.17,1.42-3.17,3.175c0,1.749,1.419,3.174,3.17,3.174
		c1.758,0,3.179-1.425,3.179-3.174C166.278,193.006,164.857,191.586,163.1,191.586z"/>
	<path fill="#F15E26" d="M180.111,191.586c-1.754,0-3.175,1.42-3.175,3.175c0,1.749,1.421,3.174,3.175,3.174
		c1.753,0,3.174-1.425,3.174-3.174C183.285,193.006,181.864,191.586,180.111,191.586z"/>
	<path fill="#F15E26" d="M197.123,191.586c-1.754,0-3.178,1.42-3.178,3.175c0,1.749,1.424,3.174,3.178,3.174
		c1.75,0,3.17-1.425,3.17-3.174C200.293,193.006,198.873,191.586,197.123,191.586z"/>
	<path fill="#F15E26" d="M214.13,191.586c-1.749,0-3.173,1.42-3.173,3.175c0,1.749,1.424,3.174,3.173,3.174
		c1.755,0,3.175-1.425,3.175-3.174C217.305,193.006,215.885,191.586,214.13,191.586z"/>
	<path fill="#F15E26" d="M231.139,191.586c-1.75,0-3.17,1.42-3.17,3.175c0,1.749,1.42,3.174,3.17,3.174
		c1.758,0,3.178-1.425,3.178-3.174C234.316,193.006,232.896,191.586,231.139,191.586z"/>
	<path fill="#F15E26" d="M244.976,194.761c0,0.654,0.203,1.268,0.541,1.771c1.235-1.563,2.427-3.157,3.576-4.789
		c-0.301-0.093-0.608-0.156-0.942-0.156C246.396,191.586,244.976,193.006,244.976,194.761z"/>
	<path fill="#F15E26" d="M81.227,208.885c0-1.753-1.425-3.173-3.174-3.173c-1.252,0-2.324,0.73-2.841,1.787
		c1.438,1.412,2.917,2.781,4.43,4.116C80.588,211.067,81.227,210.057,81.227,208.885z"/>
	<path fill="#F15E26" d="M95.06,205.712c-1.749,0-3.17,1.42-3.17,3.173c0,1.755,1.421,3.175,3.17,3.175
		c1.753,0,3.179-1.42,3.179-3.175C98.239,207.132,96.813,205.712,95.06,205.712z"/>
	<circle fill="#F15E26" cx="112.072" cy="208.886" r="3.174"/>
	<path fill="#F15E26" d="M129.083,205.712c-1.757,0-3.177,1.42-3.177,3.173c0,1.755,1.42,3.175,3.177,3.175
		c1.751,0,3.17-1.42,3.17-3.175C132.253,207.132,130.834,205.712,129.083,205.712z"/>
	<circle fill="#F15E26" cx="146.092" cy="208.886" r="3.174"/>
	<path fill="#F15E26" d="M163.1,205.712c-1.751,0-3.17,1.42-3.17,3.173c0,1.755,1.419,3.175,3.17,3.175
		c1.758,0,3.179-1.42,3.179-3.175C166.278,207.132,164.857,205.712,163.1,205.712z"/>
	<circle fill="#F15E26" cx="180.111" cy="208.886" r="3.174"/>
	<path fill="#F15E26" d="M197.123,205.712c-1.754,0-3.178,1.42-3.178,3.173c0,1.755,1.424,3.175,3.178,3.175
		c1.75,0,3.17-1.42,3.17-3.175C200.293,207.132,198.873,205.712,197.123,205.712z"/>
	<path fill="#F15E26" d="M214.13,205.712c-1.749,0-3.173,1.42-3.173,3.173c0,1.755,1.424,3.175,3.173,3.175
		c1.755,0,3.175-1.42,3.175-3.175C217.305,207.132,215.885,205.712,214.13,205.712z"/>
	<path fill="#F15E26" d="M231.139,205.712c-1.75,0-3.17,1.42-3.17,3.173c0,1.636,1.242,2.968,2.831,3.142
		c1.192-1.045,2.359-2.109,3.509-3.2C234.274,207.102,232.871,205.712,231.139,205.712z"/>
	<path fill="#F15E26" d="M95.06,219.836c-1.149,0-2.143,0.618-2.701,1.53c1.758,1.162,3.554,2.27,5.38,3.335
		c0.314-0.49,0.5-1.065,0.5-1.69C98.239,221.261,96.813,219.836,95.06,219.836z"/>
	<path fill="#F15E26" d="M112.072,219.836c-1.753,0-3.174,1.425-3.174,3.175c0,1.754,1.421,3.174,3.174,3.174
		c1.755,0,3.174-1.42,3.174-3.174C115.246,221.261,113.827,219.836,112.072,219.836z"/>
	<path fill="#F15E26" d="M129.083,219.836c-1.757,0-3.177,1.425-3.177,3.175c0,1.754,1.42,3.174,3.177,3.174
		c1.751,0,3.17-1.42,3.17-3.174C132.253,221.261,130.834,219.836,129.083,219.836z"/>
	<path fill="#F15E26" d="M146.092,219.836c-1.755,0-3.175,1.425-3.175,3.175c0,1.754,1.42,3.174,3.175,3.174
		c1.754,0,3.173-1.42,3.173-3.174C149.265,221.261,147.846,219.836,146.092,219.836z"/>
	<path fill="#F15E26" d="M163.1,219.836c-1.751,0-3.17,1.425-3.17,3.175c0,1.754,1.419,3.174,3.17,3.174
		c1.758,0,3.179-1.42,3.179-3.174C166.278,221.261,164.857,219.836,163.1,219.836z"/>
	<path fill="#F15E26" d="M180.111,219.836c-1.754,0-3.175,1.425-3.175,3.175c0,1.754,1.421,3.174,3.175,3.174
		c1.753,0,3.174-1.42,3.174-3.174C183.285,221.261,181.864,219.836,180.111,219.836z"/>
	<path fill="#F15E26" d="M197.123,219.836c-1.754,0-3.178,1.425-3.178,3.175c0,1.754,1.424,3.174,3.178,3.174
		c1.75,0,3.17-1.42,3.17-3.174C200.293,221.261,198.873,219.836,197.123,219.836z"/>
	<path fill="#F15E26" d="M214.13,219.836c-1.749,0-3.173,1.425-3.173,3.175c0,0.938,0.418,1.774,1.06,2.354
		c1.759-0.998,3.483-2.042,5.183-3.128C216.853,220.86,215.614,219.836,214.13,219.836z"/>
	<path fill="#F15E26" d="M129.083,233.966c-1.525,0-2.792,1.069-3.102,2.503c2.037,0.54,4.084,1.034,6.162,1.466
		c0.068-0.258,0.109-0.521,0.109-0.794C132.253,235.386,130.834,233.966,129.083,233.966z"/>
	<path fill="#F15E26" d="M149.265,237.141c0-1.755-1.419-3.175-3.173-3.175c-1.755,0-3.175,1.42-3.175,3.175
		c0,1.09,0.554,2.054,1.391,2.624c1.04,0.102,2.088,0.165,3.132,0.236C148.518,239.495,149.265,238.409,149.265,237.141z"/>
	<path fill="#F15E26" d="M166.278,237.141c0-1.755-1.421-3.175-3.179-3.175c-1.751,0-3.17,1.42-3.17,3.175
		c0,1.373,0.874,2.531,2.096,2.971c0.862-0.047,1.725-0.127,2.583-0.194C165.598,239.38,166.278,238.345,166.278,237.141z"/>
	<path fill="#F15E26" d="M180.111,233.966c-1.754,0-3.175,1.42-3.175,3.175c0,0.384,0.081,0.752,0.208,1.094
		c2.058-0.393,4.1-0.832,6.115-1.335C183.133,235.259,181.78,233.966,180.111,233.966z"/>
</g>
</svg>
